<svg width="48" height="48" viewBox="0 0 512 512" fill="#ffffff" xmlns="http://www.w3.org/2000/svg">
	<g id="housing" transform="matrix(1.703322,0,0,1.703322,-184.62926,-160.36078)">
		<path style="fill:#202020;fill-opacity:1" d="M 345.8,110.4 H 159.2 c -9.9,0 -18,8.1 -18,18 v 248.3 c 0,9.9 8.1,18 18,18 h 186.5 c 9.9,0 18,-8.1 18,-18 V 128.4 c 0.1,-10 -8,-18 -17.9,-18 z" id="path1" />
		<circle style="fill:#0b0b0b;fill-opacity:1" cx="344.39999" cy="129.3" r="6.4000001" id="circle4" />
		<circle style="fill:#0b0b0b;fill-opacity:1" cx="160.7" cy="129.3" r="6.4000001" id="circle5" />
		<circle style="fill:#0b0b0b;fill-opacity:1" cx="344.39999" cy="375.70001" id="circle6" r="6.4000001" />
		<circle style="fill:#0b0b0b;fill-opacity:1" cx="157.54938" cy="375.70001" id="circle1" r="6.4000001" />
	</g>
	<g id="platter" transform="matrix(1.703322,0,0,1.703322,-160.66565,-252.78729)">
		<circle style="fill:#a7a7a7;fill-opacity:1" cx="252.5" cy="215.10001" r="91.900002" id="circle2" transform="translate(-14.06876,54.2625)" />
		<circle style="fill:#545454;fill-opacity:1" cx="252.5" cy="215.10001" r="25.799999" id="circle3" transform="translate(-14.06876,54.2625)" />
	</g>
	<g id="arm" transform="matrix(1.703322,0,0,1.703322,-184.62926,-160.36078)">
		<polygon style="fill:#d6d6d6;fill-opacity:1" points="230.2,337.3 208.9,316 306.5,234.8 309,237.3 " id="polygon7" />
		<circle style="fill:#d7d7d7;fill-opacity:1" cx="202.89999" cy="343.29999" r="35.799999" id="circle8" />
		<circle style="fill:#545454;fill-opacity:1" cx="202.89999" cy="343.29999" r="11.3" id="circle9" />
	</g>
	<g id="arrow" transform="matrix(1.046767,0,0,1.046767,-25.703478,58.288207)">
		<path style="fill:#5eccff;fill-opacity:1;stroke-width:0.994177" d="M 258.73641,6.5792619 213.19218,-38.964967 V 112.8478 H 365.00495 L 319.46072,67.303575 c 0,0 50.90185,-83.94331 174.138,-52.687389 0,0 -47.32977,-70.547773 -141.09654,-61.618078 10e-4,0.892771 -44.64947,2.679306 -93.76577,53.5811539" id="path4" transform="translate(0.2375,-0.068749)" />
		<path style="fill:#000000;fill-opacity:1;stroke-width:0.994177" d="m 365.89871,122.67027 v 0 H 214.08594 c -4.46485,0 -8.92969,-3.57208 -8.92969,-8.92969 V -38.072197 c 0,-3.572077 1.78653,-7.144153 5.35761,-8.036924 3.57208,-1.785542 7.14416,-0.892771 9.82346,1.785541 l 39.29285,39.2928463 c 48.22254,-47.3297703 91.08747,-49.1163063 93.76677,-49.1163063 97.33885,-8.929695 147.34793,62.5108491 149.13347,66.082926 1.78653,2.679306 1.78653,7.144154 0,9.82346 -1.78554,2.679306 -6.25139,4.464848 -9.82346,3.572077 C 396.26087,0.3268846 346.25279,50.335961 331.96448,68.196346 l 40.18562,40.185614 c 2.6793,2.67931 3.57207,6.25139 1.78554,9.82346 -1.78554,1.78654 -4.46485,4.46485 -8.03693,4.46485 z M 222.12287,103.91712 H 343.57249 L 313.21033,73.554959 c -2.67931,-2.679307 -3.57208,-7.144154 -0.89277,-10.716231 0.89277,-0.892771 48.22254,-76.799157 157.17039,-61.6180785 -20.53969,-18.7531555 -58.93877,-44.6504645 -116.092,-39.2928465 -0.89277,0 -42.86493,2.679307 -87.51539,50.009077 -1.78554,1.785542 -3.57208,2.679306 -6.25138,2.679306 -2.67931,0 -4.46485,-0.89277 -6.25139,-2.679306 L 222.12187,-17.532506 V 103.91712 Z" id="path6" transform="translate(0.2375,-0.068749)" />
	</g>
</svg>
