<svg width="42" height="42" viewBox="0 0 42 42" fill="none" xmlns="http://www.w3.org/2000/svg">
	<path d="m 37.481201,14.348961 -4.311624,0.432668 a 3.7153037,3.7153037 0 0 1 -0.07152,0.53143 l -1.761706,9.683304 c -0.443014,2.551802 -2.643978,3.469811 -5.084794,3.587384 l -13.686426,0.674398 0.130741,0.7092 c 0.412917,2.351458 2.474674,3.197982 4.754649,3.30709 l 15.143392,0.734595 c 2.917682,0.110049 5.678299,-2.03354 6.44299,-4.741479 l 2.812352,-10.631413 c 0.69885,-2.865956 -0.954696,-4.629549 -4.368075,-4.287177 z" fill="#989a9c"/>
	<path d="m 11.046115,21.046853 c -0.379995,-2.944025 2.671257,-4.231683 6.175869,-4.670935 l 15.901505,-1.590526 0.04604,-0.0037 a 2.2028458,2.2028458 0 0 0 -0.0075,-0.38658 C 32.909973,12.389726 30.14184,10.659053 26.495193,10.244255 L 4.834504,8.0461124 C 1.1878635,7.6736414 -0.57761144,9.5877283 0.16827119,12.698237 L 3.1771968,24.238252 c 0.817367,2.937441 3.7679763,5.263503 6.8850682,5.14405 l 0.979147,-0.04797 1.522805,-0.07525 -0.134503,-0.7092 z" fill="#6f9cc3"/>
	<path d="m 31.336378,24.997302 1.761706,-9.683303 A 3.7153037,3.7153037 0 0 0 33.1696,14.78257 l -0.04604,0.0037 -15.901505,1.590527 c -3.505552,0.440192 -6.556804,1.72691 -6.175869,4.670936 l 1.385479,7.503032 0.134503,0.709199 13.686429,-0.674398 c 2.440815,-0.118513 4.641779,-1.036522 5.083851,-3.588325 z"/>
	<path d="m 22.618111,12.579723 1.366667,6.652746 7.495506,-3.873322 -5.901214,5.710281 11.209865,3.336247 -11.778918,-1.045927 2.07774,6.410074 -4.384054,-5.388601 -5.433748,7.42026 3.126498,-8.441733 -11.6011524,0.69321 11.0339804,-2.98353 -11.2794731,-10.238249 12.8756431,8.40129 z" fill="#ffffff"/>
	<path d="m 27.978736,15.825551 2.767618,-2.767617 c 0.647266,-0.647266 0.647266,-1.718602 0,-2.365868 -0.647265,-0.647265 -1.718601,-0.647265 -2.365867,0 l -2.767617,2.767619 -2.767619,-2.767619 c -0.647266,-0.647265 -1.718602,-0.647265 -2.365867,0 -0.647266,0.647266 -0.647266,1.718602 0,2.365868 l 2.767618,2.767617 -2.767618,2.767619 c -0.647266,0.647265 -0.647266,1.718601 0,2.365867 0.334793,0.334793 0.758863,0.491028 1.182934,0.491028 0.424071,0 0.84814,-0.156235 1.182933,-0.491028 l 2.767619,-2.767619 2.767617,2.767619 c 0.334793,0.334793 0.758862,0.491028 1.182933,0.491028 0.424071,0 0.848141,-0.156235 1.182934,-0.491028 0.647266,-0.647266 0.647266,-1.718602 0,-2.365867 z" stroke="#ff9900" fill="#ff0000"/>
	<path d="m 20.398604,24.319491 -4.301911,4.301911 C 15.623088,28.200421 15.162639,27.766283 14.715345,27.318989 13.360308,25.950797 12.13683,24.516827 11.044908,23.017077 9.9661399,21.517329 9.0978645,20.01758 8.4663914,18.530987 7.8349182,17.031238 7.5191816,15.597267 7.5191816,14.229076 c 0,-0.894588 0.1578683,-1.749707 0.4736049,-2.539049 0.3157366,-0.802497 0.815653,-1.539216 1.5129051,-2.1970001 0.8419644,-0.828809 1.7628624,-1.2366361 2.7363834,-1.2366361 0.368359,0 0.736719,0.078934 1.065611,0.2368031 0.342048,0.157868 0.644629,0.394671 0.881431,0.736719 l 3.052121,4.3019111 c 0.236802,0.328892 0.407826,0.631473 0.526228,0.920898 0.118401,0.27627 0.184179,0.55254 0.184179,0.802497 0,0.315737 -0.09209,0.631474 -0.276269,0.934055 -0.171024,0.30258 -0.420983,0.618317 -0.736719,0.934054 l -0.999833,1.0393 c -0.144712,0.144712 -0.210491,0.315736 -0.210491,0.526227 0,0.105246 0.01315,0.197335 0.03947,0.302581 0.03947,0.105246 0.07893,0.18418 0.105246,0.263114 0.236802,0.434137 0.644629,0.999832 1.22348,1.683928 0.592005,0.684097 1.223479,1.381347 1.907574,2.078599 0.473605,0.46045 0.934055,0.907743 1.394504,1.302414 z" stroke="#ff9900" fill="#ff0000"/>
	<path d="m 33.790572,29.739636 c 0,0.368359 -0.06578,0.749875 -0.197336,1.118234 -0.03947,0.105246 -0.07893,0.210491 -0.131557,0.315737 -0.223646,0.473604 -0.513071,0.920898 -0.894586,1.34188 -0.64463,0.710407 -1.355037,1.223479 -2.157534,1.552372 -0.01315,0 -0.02632,0.01315 -0.03947,0.01315 -0.776183,0.315742 -1.618147,0.486766 -2.52589,0.486766 -1.34188,0 -2.775851,-0.315736 -4.288756,-0.960366 -1.512904,-0.644629 -3.025809,-1.512904 -4.525557,-2.604826 -0.513073,-0.381515 -1.026131,-0.763031 -1.512892,-1.170857 l 4.301899,-4.301911 c 0.368359,0.276269 0.697251,0.486761 0.973521,0.631473 0.06578,0.02631 0.144712,0.06578 0.236802,0.105246 0.105246,0.03947 0.210491,0.05262 0.328893,0.05262 0.223646,0 0.39467,-0.07893 0.539383,-0.223646 l 0.999832,-0.986678 c 0.328893,-0.328891 0.64463,-0.57885 0.947211,-0.736719 0.302581,-0.184179 0.605161,-0.276269 0.934053,-0.276269 0.249959,0 0.513073,0.05262 0.802497,0.171024 0.289426,0.118402 0.592007,0.289426 0.920899,0.513073 l 4.354534,3.091587 c 0.342047,0.236803 0.57885,0.513072 0.723563,0.841964 0.131557,0.328892 0.210491,0.657784 0.210491,1.026144 z" stroke="#ff9900" fill="#ff0000"/>
</svg>
