<svg width="42" height="42" viewBox="0 0 42 42" fill="none" xmlns="http://www.w3.org/2000/svg">
	<path d="m 37.481201,14.348961 -4.311624,0.432668 a 3.7153037,3.7153037 0 0 1 -0.07152,0.53143 l -1.761706,9.683304 c -0.443014,2.551802 -2.643978,3.469811 -5.084794,3.587384 l -13.686426,0.674398 0.130741,0.7092 c 0.412917,2.351458 2.474674,3.197982 4.754649,3.30709 l 15.143392,0.734595 c 2.917682,0.110049 5.678299,-2.03354 6.44299,-4.741479 l 2.812352,-10.631413 c 0.69885,-2.865956 -0.954696,-4.629549 -4.368075,-4.287177 z" fill="#989a9c"/>
	<path d="m 11.046115,21.046853 c -0.379995,-2.944025 2.671257,-4.231683 6.175869,-4.670935 l 15.901505,-1.590526 0.04604,-0.0037 a 2.2028458,2.2028458 0 0 0 -0.0075,-0.38658 C 32.909973,12.389726 30.14184,10.659053 26.495193,10.244255 L 4.834504,8.0461124 C 1.1878635,7.6736414 -0.57761144,9.5877283 0.16827119,12.698237 L 3.1771968,24.238252 c 0.817367,2.937441 3.7679763,5.263503 6.8850682,5.14405 l 0.979147,-0.04797 1.522805,-0.07525 -0.134503,-0.7092 z" fill="#6f9cc3"/>
	<path d="m 31.336378,24.997302 1.761706,-9.683303 A 3.7153037,3.7153037 0 0 0 33.1696,14.78257 l -0.04604,0.0037 -15.901505,1.590527 c -3.505552,0.440192 -6.556804,1.72691 -6.175869,4.670936 l 1.385479,7.503032 0.134503,0.709199 13.686429,-0.674398 c 2.440815,-0.118513 4.641779,-1.036522 5.083851,-3.588325 z"/>
	<path d="m 22.618111,12.579723 1.366667,6.652746 7.495506,-3.873322 -5.901214,5.710281 11.209865,3.336247 -11.778918,-1.045927 2.07774,6.410074 -4.384054,-5.388601 -5.433748,7.42026 3.126498,-8.441733 -11.6011524,0.69321 11.0339804,-2.98353 -11.2794731,-10.238249 12.8756431,8.40129 z" fill="#ffffff"/>
</svg>
