<svg width="42" height="42" viewBox="0 0 42 42" fill="none" xmlns="http://www.w3.org/2000/svg">
	<path d="m 4.4215686,0.97140914 c 0,0 6.7449044,-0.8976666 16.4996554,-0.8976666 9.814854,0 16.32858,0.8976666 16.32858,0.8976666 V 25.250601 c 0,9.541547 -7.412478,16.627846 -16.414117,16.627846 C 11.758893,41.878479 4.4215686,34.69649 4.4215686,25.464362 Z" fill="#0b5ed8"/>
	<path d="M 16.469796,4.0616997 H 14.944245 V 6.0486245 H 13.355969 V 4.0616997 h -1.525765 v 4.9986742 h 1.525765 V 7.0942623 h 1.588276 v 1.9661116 h 1.525551 z m 5.308033,3.9945209 V 4.0616997 h -1.525623 v 4.9986742 h 2.758793 L 23.240656,8.0562206 Z M 19.123812,4.0616997 h -1.525551 v 4.9987452 h 1.525551 z m 6.185886,0 h -1.52541 v 4.9987452 h 1.52541 z m 7.522838,1.2757206 c 0,-0.2717802 0.272064,-0.3974417 0.710423,-0.3974417 0.480765,0 1.003656,0.104635 1.358618,0.2516066 L 34.776413,4.1036818 c -0.397442,-0.08368 -0.752689,-0.1464037 -1.400316,-0.1464037 -1.233172,0 -2.068758,0.486449 -2.068758,1.5060167 0,1.7563447 2.382733,1.4010979 2.382733,2.2167238 0,0.3134781 -0.230296,0.4805528 -0.794883,0.4805528 -0.500728,0 -1.274584,-0.1670747 -1.734253,-0.3971575 l 0.167714,1.1506276 c 0.459313,0.1673589 1.08627,0.2507541 1.588062,0.2507541 1.274442,0 2.319582,-0.418397 2.319582,-1.6733754 0,-1.6725943 -2.403758,-1.3591872 -2.403758,-2.1539999 m -4.304022,2.5306995 c 1.419993,0 2.318944,-0.7321596 2.318944,-2.0075961 0,-1.4013822 -0.961107,-1.9032456 -2.528497,-1.9032456 -0.606073,0 -1.337876,0.041698 -1.860199,0.1044216 v 4.9986742 h 1.526191 V 7.8681198 Z M 29.34279,5.8811947 c 0,0.6484801 -0.313193,1.0876907 -1.10758,1.0876907 H 28.049808 V 4.9035376 c 0.08851,-0.00497 0.107051,-0.00497 0.185402,-0.00497 0.75212,0 1.10758,0.3553891 1.10758,0.9826296 M 8.9046917,7.8681198 c 1.4211293,0 2.3196533,-0.7321596 2.3196533,-2.0075961 0,-1.4013822 -0.961319,-1.9032456 -2.5285678,-1.9032456 -0.6061429,0 -1.3376632,0.041698 -1.8599849,0.1044216 V 9.0603739 H 8.3611307 V 7.8681198 Z M 9.7199626,5.8811947 c 0,0.6484801 -0.3136204,1.0876907 -1.1077936,1.0876907 H 8.4298215 V 4.9035376 c 0.08922,-0.00497 0.1038535,-0.00497 0.1823475,-0.00497 0.7519782,0 1.1077936,0.3553891 1.1077936,0.9826296" fill="#ffffff"/>
	<path d="m 6.6985139,27.223745 c -0.044034,-0.399196 -0.089645,-1.219147 -0.099241,-1.755604 1.2261461,0.636191 3.0651516,1.389203 5.7896981,1.389203 6.605574,0 9.588966,-4.950032 16.090436,-4.950032 2.67325,0 4.936262,0.76918 6.465223,1.71742 0.06635,0.591566 0.0859,1.183131 0.110676,1.774697 -1.743642,-0.85623 -3.551298,-1.366299 -5.785853,-1.366299 -6.681976,0 -9.406883,4.915691 -16.105749,4.915691 -2.589191,0 -4.7424147,-0.66363 -6.4651901,-1.725076 z" fill="#ffffff"/>
	<path d="m 6.7280561,23.678986 c 0.2257557,-1.966605 0.7793994,-3.435102 1.665006,-5.099648 l 2.9540159,0.377836 c 0.559361,0.07285 0.964144,0.190464 1.235708,0.488776 0.260753,0.292925 0.374814,0.467483 0.53212,1.567935 l 0.439024,3.447655 c 0,0 -0.897864,0.156057 -2.016061,0.166999 -1.937293,0 -3.6923713,-0.497648 -4.8098129,-0.949553 z M 8.689995,18.068414 c 1.0421896,-1.722349 2.592543,-3.431028 4.722731,-4.720004 l -0.352041,2.662406 c -0.07903,0.573426 -0.139988,0.851201 -0.444676,1.207974 -0.258091,0.286023 -0.688013,0.397521 -1.191872,0.489203 z m 5.420208,-3.336124 -0.20226,-1.686925 c 0.877326,-0.495874 1.977219,-0.988363 3.240235,-1.305243 l -0.2481,1.889184 c -0.106635,0.595509 -0.361669,0.781865 -0.996053,0.877787 z m 3.026705,3.144511 -1.570629,-0.229371 C 14.824537,17.492589 14.407662,16.974599 14.299812,16.04348 L 14.14497,14.923114 16.008852,15.1862 c 0.614798,0.06832 0.832996,0.368833 0.914852,1.025528 z" fill="#ffffff"/>
	<path d="m 13.828287,24.404953 0.377345,-3.21513 c 0.22891,-1.599677 0.437381,-2.011165 1.786131,-2.225024 l 3.812709,-0.503794 v -0.255693 l -2.446376,-0.29772 0.240411,-1.862469 c 0.06158,-0.542799 0.314547,-0.789718 0.996118,-0.873974 l 1.984581,-0.267161 V 14.75894 L 18.464857,14.484188 C 17.856434,14.384528 17.663046,14.12919 17.59085,13.57203 l -0.2481,-1.877749 c 0,0 1.463468,-0.442737 3.488336,-0.442737 7.866617,0 12.540681,5.946609 13.68221,10.296991 -1.197129,-0.77585 -3.636508,-1.896808 -6.568275,-1.896808 -5.932809,6.5e-5 -8.943608,3.778105 -14.116734,4.753226 z m 6.99902,15.293127 c -6.014633,0 -11.7212577,-3.751883 -13.697524,-10.367577 1.7400607,1.098842 4.239739,1.904432 6.652203,1.904432 6.282057,0 9.324764,-3.994727 14.028271,-4.830252 l -0.496564,3.891509 c -0.173966,1.004498 -0.449802,1.440367 -1.656987,1.640819 l -3.859175,0.491176 v 0.264466 l 3.621621,0.45874 c 1.201303,0.12944 1.760566,0.527224 1.889086,1.711012 l 0.404783,3.04951 C 26.525947,38.6227 23.996398,39.69808 20.827274,39.69808 Z m 7.360721,-2.034463 0.30229,-2.434219 c 0.199072,-1.373857 0.419636,-1.870323 1.754124,-2.040214 l 2.767563,-0.357135 c -1.401133,2.265412 -2.960982,3.628917 -4.823944,4.831568 z m 5.105924,-5.3164 -2.795821,-0.367059 C 29.058913,31.811844 28.7003,31.458226 28.517263,30.058705 l -0.474908,-3.691813 c 0,0 0.956587,-0.16194 2.045603,-0.16194 1.625244,0 3.839327,0.522295 4.868437,0.976928 -0.240214,1.72179 -0.561333,3.119733 -1.662443,5.165337 z" fill="#ffffff"/>
	<path d="m 24.33053,38.710702 h 0.116492 l 0.207979,-1.570234 c 0.09835,-0.640528 0.344548,-0.689755 0.796552,-0.772236 l 1.532872,-0.194274 V 36.05523 l -1.649233,-0.212086 c -0.43623,-0.06769 -0.604644,-0.296965 -0.672337,-0.677036 l -0.209129,-1.6423 h -0.124117 l -0.214976,1.671875 c -0.08676,0.40383 -0.244619,0.565605 -0.681671,0.638228 l -1.640788,0.221286 v 0.118727 l 1.578812,0.202195 c 0.521177,0.06677 0.71256,0.308434 0.766814,0.80342 z" fill="#0b5ed8"/>
</svg>
