<svg width="42" height="42" viewBox="0 0 42 42" fill="none" xmlns="http://www.w3.org/2000/svg">
	<path d="M 6.4510745,5.5125203 36.212013,9.4987079 c 2.591176,0.347022 6.193296,3.3055311 5.632703,7.1515691 L 39.7936,30.718868 c -0.475567,3.263799 -3.139496,4.73714 -6.042435,4.865683 L 12.54975,36.524749 C 8.1832872,36.718234 5.3106976,33.577399 4.5733581,30.310922 L 0.29839499,11.373076 C -0.13119918,9.4708119 0.42269828,7.7981846 1.3559774,6.8769563 2.5559396,5.6926152 4.3867914,5.2362421 6.4510745,5.5125203 Z" fill="#000000"/>
	<path d="m 33.192581,19.986604 h -0.663473 v -0.223612 h 2.937755 v 0.223612 h -0.902706 l 1.88218,4.430957 1.450578,-3.552799 c 0.04753,-0.10243 0.079,-0.194378 0.09976,-0.273378 0.02143,-0.07899 0.03192,-0.149967 0.03192,-0.213124 0,-0.142156 -0.05802,-0.241911 -0.173846,-0.294579 -0.116047,-0.05491 -0.395004,-0.08926 -0.836872,-0.105106 v -0.2158 h 2.189701 v 0.223612 h -0.09194 c -0.210446,0 -0.389648,0.07899 -0.531804,0.234101 -0.144611,0.157777 -0.323813,0.491633 -0.539614,1.00737 l -2.02166,4.922367 -0.131667,0.08413 z m -2.734228,4.954057 c 0,0.349925 0.05223,0.597193 0.155101,0.74448 0.102883,0.144167 0.276279,0.218033 0.523994,0.218033 0.260656,0 0.489401,-0.07632 0.684224,-0.226289 0.197503,-0.152646 0.342115,-0.367778 0.439861,-0.64428 h 0.231422 c -0.118057,0.384069 -0.316001,0.681326 -0.589379,0.888646 -0.274271,0.207991 -0.611029,0.312879 -1.006033,0.312879 a 2.0629442,2.0629442 0 0 1 -0.713015,-0.123411 c -0.224057,-0.08145 -0.416203,-0.199733 -0.573982,-0.35528 a 1.0209833,1.0209833 0 0 1 -0.26579,-0.402367 c -0.05534,-0.1522 -0.08145,-0.370456 -0.08145,-0.652091 V 19.986159 H 28.16801 v -0.223612 c 0.621071,0 1.100655,-0.165589 1.434957,-0.499445 0.334303,-0.333856 0.557914,-0.867893 0.671283,-1.596082 h 0.184334 v 2.09575 h 1.750513 v 0.223612 h -1.750513 v 4.954279 z" fill="#e7be39"/>
	<path d="m 20.584385,25.819042 h 0.918997 V 15.818761 h -0.918997 v -0.22339 h 2.245717 v 5.432746 c 0.210446,-0.468201 0.497436,-0.828166 0.863429,-1.077888 0.365767,-0.252846 0.776392,-0.378712 1.234329,-0.378712 0.771484,0 1.440088,0.326044 2.008937,0.975457 0.568404,0.649413 0.852495,1.427814 0.852495,2.338108 0,0.996435 -0.278958,1.803625 -0.836872,2.421793 -0.558361,0.61817 -1.279186,0.927924 -2.164039,0.927924 -0.405268,0 -0.773716,-0.105106 -1.102662,-0.312878 -0.329616,-0.207546 -0.618838,-0.512612 -0.871686,-0.917435 v 1.038613 h -2.229648 z m 2.245717,-4.228545 v 2.842685 c 0.220935,0.517745 0.50257,0.906946 0.844683,1.170281 0.342112,0.260212 0.73957,0.39188 1.192596,0.39188 0.523994,0 0.903154,-0.171392 1.137699,-0.515736 0.234102,-0.344346 0.349926,-0.909625 0.349926,-1.693382 v -1.811883 c 0,-0.712567 -0.126314,-1.246159 -0.381838,-1.601438 -0.255524,-0.354833 -0.634683,-0.531357 -1.137253,-0.531357 -0.432048,0 -0.824151,0.152645 -1.174298,0.457714 -0.347245,0.30529 -0.626204,0.736445 -0.831515,1.291236 z m -6.511977,0.684002 v 1.827504 c 0,0.65477 0.126313,1.133236 0.378936,1.430493 0.249945,0.296812 0.652983,0.446777 1.203086,0.446777 0.550104,0 1.023884,-0.178754 1.426699,-0.539167 0.400137,-0.359967 0.684449,-0.856957 0.847583,-1.493203 h 0.23968 c -0.189691,0.723058 -0.510825,1.288336 -0.96363,1.696061 -0.452803,0.404821 -0.98974,0.60768 -1.61371,0.60768 -0.810762,0 -1.508379,-0.321136 -2.085037,-0.959835 -0.579117,-0.638924 -0.868786,-1.417549 -0.868786,-2.338109 0,-0.959836 0.260658,-1.764348 0.781972,-2.411305 0.523771,-0.646735 1.16091,-0.970325 1.919226,-0.970325 0.729307,0 1.350377,0.255078 1.866335,0.762335 0.513505,0.507701 0.800273,1.154658 0.855618,1.940872 h -3.987972 z m 0,-0.223612 h 2.43764 v -0.738901 c 0,-0.51819 -0.09998,-0.902259 -0.300158,-1.146849 -0.199957,-0.247046 -0.513282,-0.370455 -0.934619,-0.370455 -0.399913,0 -0.702749,0.14461 -0.902928,0.431157 -0.199957,0.286767 -0.299935,0.720602 -0.299935,1.301503 z M 4.3303304,19.986604 v -0.223612 h 2.9379771 v 0.223612 H 6.3653789 l 1.8821795,4.430957 1.0872648,-2.63492 -0.7844286,-1.796259 H 7.5394543 V 19.76277 h 3.4695567 v 0.223612 H 9.9375928 l 1.8663352,4.430955 1.450578,-3.544987 c 0.05534,-0.139479 0.09485,-0.241912 0.11582,-0.312879 0.02121,-0.06807 0.03168,-0.128543 0.03168,-0.181211 0,-0.142156 -0.06048,-0.241911 -0.17898,-0.294579 -0.118499,-0.05491 -0.400136,-0.08681 -0.847582,-0.0973 v -0.223612 h 2.190148 v 0.223612 h -0.09217 c -0.205313,0 -0.376482,0.07096 -0.513282,0.213121 -0.136799,0.13948 -0.318681,0.483825 -0.542292,1.028126 L 11.380352,26.15 11.248682,26.23413 9.4823264,22.142606 7.8237583,26.149995 7.6947682,26.234125 4.9779483,19.986377 H 4.3303304 Z" fill="#ffffff"/>
	<path d="m 27.978736,15.825551 2.767618,-2.767617 c 0.647266,-0.647266 0.647266,-1.718602 0,-2.365868 -0.647265,-0.647265 -1.718601,-0.647265 -2.365867,0 l -2.767617,2.767619 -2.767619,-2.767619 c -0.647266,-0.647265 -1.718602,-0.647265 -2.365867,0 -0.647266,0.647266 -0.647266,1.718602 0,2.365868 l 2.767618,2.767617 -2.767618,2.767619 c -0.647266,0.647265 -0.647266,1.718601 0,2.365867 0.334793,0.334793 0.758863,0.491028 1.182934,0.491028 0.424071,0 0.84814,-0.156235 1.182933,-0.491028 l 2.767619,-2.767619 2.767617,2.767619 c 0.334793,0.334793 0.758862,0.491028 1.182933,0.491028 0.424071,0 0.848141,-0.156235 1.182934,-0.491028 0.647266,-0.647266 0.647266,-1.718602 0,-2.365867 z" stroke="#ff9900" fill="#ff0000"/>
	<path d="m 20.398604,24.319491 -4.301911,4.301911 C 15.623088,28.200421 15.162639,27.766283 14.715345,27.318989 13.360308,25.950797 12.13683,24.516827 11.044908,23.017077 9.9661399,21.517329 9.0978645,20.01758 8.4663914,18.530987 7.8349182,17.031238 7.5191816,15.597267 7.5191816,14.229076 c 0,-0.894588 0.1578683,-1.749707 0.4736049,-2.539049 0.3157366,-0.802497 0.815653,-1.539216 1.5129051,-2.1970001 0.8419644,-0.828809 1.7628624,-1.2366361 2.7363834,-1.2366361 0.368359,0 0.736719,0.078934 1.065611,0.2368031 0.342048,0.157868 0.644629,0.394671 0.881431,0.736719 l 3.052121,4.3019111 c 0.236802,0.328892 0.407826,0.631473 0.526228,0.920898 0.118401,0.27627 0.184179,0.55254 0.184179,0.802497 0,0.315737 -0.09209,0.631474 -0.276269,0.934055 -0.171024,0.30258 -0.420983,0.618317 -0.736719,0.934054 l -0.999833,1.0393 c -0.144712,0.144712 -0.210491,0.315736 -0.210491,0.526227 0,0.105246 0.01315,0.197335 0.03947,0.302581 0.03947,0.105246 0.07893,0.18418 0.105246,0.263114 0.236802,0.434137 0.644629,0.999832 1.22348,1.683928 0.592005,0.684097 1.223479,1.381347 1.907574,2.078599 0.473605,0.46045 0.934055,0.907743 1.394504,1.302414 z" stroke="#ff9900" fill="#ff0000"/>
	<path d="m 33.790572,29.739636 c 0,0.368359 -0.06578,0.749875 -0.197336,1.118234 -0.03947,0.105246 -0.07893,0.210491 -0.131557,0.315737 -0.223646,0.473604 -0.513071,0.920898 -0.894586,1.34188 -0.64463,0.710407 -1.355037,1.223479 -2.157534,1.552372 -0.01315,0 -0.02632,0.01315 -0.03947,0.01315 -0.776183,0.315742 -1.618147,0.486766 -2.52589,0.486766 -1.34188,0 -2.775851,-0.315736 -4.288756,-0.960366 -1.512904,-0.644629 -3.025809,-1.512904 -4.525557,-2.604826 -0.513073,-0.381515 -1.026131,-0.763031 -1.512892,-1.170857 l 4.301899,-4.301911 c 0.368359,0.276269 0.697251,0.486761 0.973521,0.631473 0.06578,0.02631 0.144712,0.06578 0.236802,0.105246 0.105246,0.03947 0.210491,0.05262 0.328893,0.05262 0.223646,0 0.39467,-0.07893 0.539383,-0.223646 l 0.999832,-0.986678 c 0.328893,-0.328891 0.64463,-0.57885 0.947211,-0.736719 0.302581,-0.184179 0.605161,-0.276269 0.934053,-0.276269 0.249959,0 0.513073,0.05262 0.802497,0.171024 0.289426,0.118402 0.592007,0.289426 0.920899,0.513073 l 4.354534,3.091587 c 0.342047,0.236803 0.57885,0.513072 0.723563,0.841964 0.131557,0.328892 0.210491,0.657784 0.210491,1.026144 z" stroke="#ff9900" fill="#ff0000"/>
</svg>
