<svg width="42" height="42" viewBox="0 0 42 42" fill="none" xmlns="http://www.w3.org/2000/svg">
	<path d="M 6.8428809,5.5586794 35.688523,9.422272 c 2.511485,0.3363493 6.002822,3.203869 5.45947,6.931623 l -1.988034,13.635912 c -0.460941,3.163421 -3.042941,4.591449 -5.856601,4.716039 L 12.753992,35.617128 C 8.5218195,35.804662 5.7375763,32.760424 5.0229136,29.594407 L 0.87942685,11.238994 C 0.46304485,9.3952339 0.99990715,7.7740482 1.9044834,6.8811523 3.0675408,5.7332355 4.8420848,5.2908982 6.8428809,5.5586794 Z" stroke="#e1b049" fill="#000000"/>
	<path d="m 32.761954,19.587613 h -0.643068 v -0.216735 h 2.847404 v 0.216735 h -0.874943 l 1.824294,4.294683 1.405965,-3.443533 c 0.04607,-0.09928 0.07657,-0.1884 0.09669,-0.26497 0.02077,-0.07656 0.03094,-0.145355 0.03094,-0.206569 0,-0.137784 -0.05623,-0.234471 -0.168499,-0.28552 -0.112478,-0.05322 -0.382856,-0.08651 -0.811134,-0.101873 v -0.209163 h 2.122357 v 0.216735 h -0.08911 c -0.203973,0 -0.377664,0.07656 -0.515448,0.226901 -0.140164,0.152924 -0.313854,0.476513 -0.523018,0.976388 l -1.959484,4.77098 -0.127618,0.08154 z m -2.650137,4.801695 c 0,0.339163 0.05062,0.578826 0.150331,0.721584 0.09972,0.139733 0.267782,0.211327 0.507878,0.211327 0.25264,0 0.47435,-0.07397 0.663181,-0.219329 0.191429,-0.147952 0.331593,-0.356467 0.426333,-0.624466 h 0.224305 c -0.114426,0.372257 -0.306283,0.660372 -0.571253,0.861316 -0.265836,0.201594 -0.592237,0.303257 -0.975092,0.303257 a 1.9994984,1.9994984 0 0 1 -0.691087,-0.119616 c -0.217166,-0.07895 -0.403402,-0.19359 -0.556329,-0.344353 a 0.989583,0.989583 0 0 1 -0.257616,-0.389993 c -0.05364,-0.147519 -0.07895,-0.359062 -0.07895,-0.632036 v -4.569817 h -1.06161 v -0.216735 c 0.60197,0 1.066805,-0.160497 1.390825,-0.484085 0.324022,-0.323588 0.540756,-0.841201 0.650638,-1.546994 h 0.178665 v 2.031295 h 1.696676 v 0.216735 h -1.696676 v 4.80191 z" fill="#e7be39"/>
	<path d="m 20.541522,25.240675 h 0.890734 v -9.692723 h -0.890734 v -0.21652 h 2.17665 v 5.265662 c 0.203974,-0.453801 0.482138,-0.802696 0.836875,-1.044737 0.354517,-0.24507 0.752514,-0.367065 1.196367,-0.367065 0.747757,0 1.395798,0.316016 1.947152,0.945457 0.550923,0.62944 0.826277,1.383901 0.826277,2.266199 0,0.96579 -0.270379,1.748155 -0.811134,2.347311 -0.541189,0.599158 -1.239845,0.899386 -2.097484,0.899386 -0.392804,0 -0.749921,-0.101874 -1.06875,-0.303256 -0.319479,-0.201162 -0.599806,-0.496846 -0.844877,-0.889219 v 1.006671 h -2.161076 z m 2.17665,-4.098497 v 2.755259 c 0.214141,0.501821 0.487114,0.879053 0.818705,1.134289 0.331591,0.252209 0.716825,0.379827 1.155918,0.379827 0.507879,0 0.875377,-0.16612 1.102709,-0.499874 0.226902,-0.333756 0.339164,-0.88165 0.339164,-1.641302 v -1.756159 c 0,-0.690652 -0.122429,-1.207833 -0.370095,-1.552186 -0.247665,-0.34392 -0.615163,-0.515015 -1.102276,-0.515015 -0.418761,0 -0.798805,0.147951 -1.138183,0.443637 -0.336565,0.295901 -0.606945,0.713796 -0.805942,1.251524 z m -6.311701,0.662966 v 1.771299 c 0,0.634633 0.122428,1.098383 0.367282,1.386498 0.242258,0.287684 0.6329,0.433037 1.166085,0.433037 0.533186,0 0.992394,-0.173257 1.382821,-0.522585 0.387831,-0.348897 0.663399,-0.830602 0.821515,-1.44728 h 0.232309 c -0.183857,0.70082 -0.495114,1.248713 -0.933993,1.643899 -0.438878,0.392371 -0.959301,0.588991 -1.564081,0.588991 -0.785827,0 -1.461989,-0.31126 -2.020912,-0.930316 -0.561306,-0.619274 -0.842066,-1.373952 -0.842066,-2.2662 0,-0.930317 0.252641,-1.710086 0.757922,-2.337146 0.507663,-0.626844 1.125207,-0.940482 1.860201,-0.940482 0.706877,0 1.308846,0.247233 1.808936,0.738889 0.497712,0.492087 0.77566,1.119147 0.829303,1.881181 h -3.865322 z m 0,-0.216735 h 2.36267 v -0.716176 c 0,-0.502253 -0.0969,-0.87451 -0.290926,-1.111578 -0.193808,-0.239448 -0.497496,-0.359062 -0.905875,-0.359062 -0.387614,0 -0.681136,0.140163 -0.875159,0.417897 -0.193807,0.277948 -0.29071,0.69844 -0.29071,1.261476 z M 4.7873603,19.587613 V 19.370878 H 7.63498 v 0.216735 H 6.7598209 l 1.8242932,4.294683 1.0538256,-2.553883 -0.760303,-1.741015 h -0.979849 v -0.216735 h 3.3628513 v 0.216735 h -1.038467 l 1.808936,4.294681 1.405965,-3.435961 c 0.05364,-0.135189 0.09193,-0.234472 0.112258,-0.303257 0.02056,-0.06598 0.03071,-0.124589 0.03071,-0.175637 0,-0.137784 -0.05862,-0.234471 -0.173475,-0.28552 -0.114855,-0.05322 -0.38783,-0.08414 -0.821515,-0.09431 v -0.216735 h 2.12279 v 0.216735 h -0.08934 c -0.198999,0 -0.364904,0.06878 -0.497496,0.206566 -0.132592,0.135191 -0.30888,0.468945 -0.525614,0.996506 l -1.974833,4.770985 -0.12762,0.08154 -1.7120323,-3.96569 -1.6075588,3.884142 -0.125023,0.08154 -2.6332632,-6.05559 H 4.7873603 Z" fill="#ffffff"/>
</svg>
